<svg xmlns="http://www.w3.org/2000/svg" width="120" height="24" viewBox="0 0 120 24">
  <!-- 璃月风格金色回纹带：菱形套菱形 + 金点，横向重复平铺用 -->
  <g fill="none" stroke="#d9a441" stroke-width="1.1" opacity="0.9">
    <path d="M15 4 L23 12 L15 20 L7 12 Z"/>
    <path d="M15 8 L19 12 L15 16 L11 12 Z" stroke-width="0.7"/>
    <circle cx="15" cy="12" r="1.3" fill="#fbd97a" stroke="none"/>
    <path d="M45 4 L53 12 L45 20 L37 12 Z"/>
    <path d="M45 8 L49 12 L45 16 L41 12 Z" stroke-width="0.7"/>
    <circle cx="45" cy="12" r="1.3" fill="#fbd97a" stroke="none"/>
    <path d="M75 4 L83 12 L75 20 L67 12 Z"/>
    <path d="M75 8 L79 12 L75 16 L71 12 Z" stroke-width="0.7"/>
    <circle cx="75" cy="12" r="1.3" fill="#fbd97a" stroke="none"/>
    <path d="M105 4 L113 12 L105 20 L97 12 Z"/>
    <path d="M105 8 L109 12 L105 16 L101 12 Z" stroke-width="0.7"/>
    <circle cx="105" cy="12" r="1.3" fill="#fbd97a" stroke="none"/>
  </g>
</svg>
